<svg xmlns="http://www.w3.org/2000/svg" xmlns:xlink="http://www.w3.org/1999/xlink" width="1920" zoomAndPan="magnify" viewBox="0 0 1440 374.999991" height="500" preserveAspectRatio="xMidYMid meet" version="1.0"><defs><filter x="0%" y="0%" width="100%" height="100%" id="id1"><feColorMatrix values="0 0 0 0 1 0 0 0 0 1 0 0 0 0 1 0 0 0 1 0" color-interpolation-filters="sRGB"/></filter><g/><clipPath id="id2"><path d="M 186.035156 102.324219 L 347.285156 102.324219 L 347.285156 263.574219 L 186.035156 263.574219 Z M 186.035156 102.324219 " clip-rule="nonzero"/></clipPath><mask id="id3"><g filter="url(#id1)"><rect x="-144" width="1728" fill="#000000" y="-37.499999" height="449.999989" fill-opacity="0.098"/></g></mask><clipPath id="id4"><path d="M 0.121094 0.078125 L 15.71875 0.078125 L 15.71875 15.199219 L 0.121094 15.199219 Z M 0.121094 0.078125 " clip-rule="nonzero"/></clipPath><clipPath id="id5"><rect x="0" width="16" y="0" height="16"/></clipPath><mask id="id6"><g filter="url(#id1)"><rect x="-144" width="1728" fill="#000000" y="-37.499999" height="449.999989" fill-opacity="0.098"/></g></mask><clipPath id="id7"><path d="M 1 0.078125 L 7.601562 0.078125 L 7.601562 6.800781 L 1 6.800781 Z M 1 0.078125 " clip-rule="nonzero"/></clipPath><clipPath id="id8"><rect x="0" width="8" y="0" height="7"/></clipPath><mask id="id9"><g filter="url(#id1)"><rect x="-144" width="1728" fill="#000000" y="-37.499999" height="449.999989" fill-opacity="0.098"/></g></mask><clipPath id="id10"><path d="M 0.28125 0.480469 L 7 0.480469 L 7 7 L 0.28125 7 Z M 0.28125 0.480469 " clip-rule="nonzero"/></clipPath><clipPath id="id11"><rect x="0" width="7" y="0" height="8"/></clipPath><clipPath id="id12"><path d="M 358.226562 102.324219 L 519.476562 102.324219 L 519.476562 263.574219 L 358.226562 263.574219 Z M 358.226562 102.324219 " clip-rule="nonzero"/></clipPath></defs><g fill="#ffffff" fill-opacity="1"><g transform="translate(524.891287, 261.648425)"><g><path d="M 40.726562 -0.226562 C 37.800781 -0.226562 34.875 0 31.726562 0 C 27 0 22.5 0.226562 17.773438 0.226562 C 17.324219 0.226562 16.648438 -0.226562 16.199219 -0.449219 C 15.75 -0.449219 15.074219 -0.449219 14.851562 -1.125 C 14.851562 -1.351562 14.851562 -1.574219 14.625 -1.800781 L 14.851562 -2.023438 C 14.851562 -2.25 15.074219 -2.476562 15.074219 -2.476562 C 15.074219 -2.699219 14.625 -2.699219 14.625 -2.699219 L 14.851562 -2.925781 C 14.851562 -3.148438 14.851562 -3.375 14.851562 -3.375 L 14.625 -4.273438 C 14.625 -9.898438 14.851562 -15.300781 14.851562 -20.925781 C 14.851562 -26.324219 15.074219 -31.949219 15.074219 -37.351562 C 15.074219 -42.976562 15.074219 -48.375 15.074219 -54 L 15.074219 -70.425781 C 15.074219 -76.050781 14.625 -81.449219 14.625 -87.074219 L 14.625 -103.5 C 14.625 -109.125 14.851562 -114.523438 14.851562 -120.148438 C 14.851562 -125.550781 14.851562 -131.175781 14.851562 -136.574219 L 14.851562 -153.226562 C 14.851562 -153.449219 15.074219 -153.675781 14.851562 -153.898438 C 14.851562 -154.125 14.625 -154.351562 14.625 -154.574219 C 14.625 -154.800781 15.074219 -155.023438 15.074219 -155.023438 C 15.074219 -155.476562 14.851562 -155.925781 14.851562 -156.375 C 15.074219 -156.824219 15.523438 -157.273438 15.976562 -157.5 C 16.425781 -157.5 16.648438 -157.726562 16.875 -157.726562 L 18.226562 -157.726562 C 19.125 -157.726562 20.25 -157.273438 21.148438 -157.273438 C 25.199219 -157.273438 29.925781 -157.5 33.976562 -157.273438 C 34.648438 -157.050781 34.875 -156.601562 35.324219 -156.601562 C 40.050781 -156.148438 44.324219 -155.476562 49.050781 -154.125 C 52.875 -153.226562 56.476562 -152.101562 60.300781 -150.523438 C 60.75 -150.300781 61.425781 -150.074219 61.648438 -149.625 L 62.324219 -148.949219 C 62.550781 -148.726562 63 -148.726562 63.449219 -148.726562 C 64.800781 -148.273438 66.601562 -146.925781 67.949219 -146.023438 L 72 -143.101562 C 72.675781 -142.648438 73.125 -142.199219 73.800781 -141.75 L 74.476562 -141.074219 C 75.601562 -140.175781 76.726562 -139.050781 77.851562 -137.699219 C 78.300781 -137.25 78.300781 -137.023438 78.75 -136.800781 C 79.199219 -136.351562 79.648438 -136.351562 80.101562 -136.351562 C 80.550781 -136.351562 81.226562 -136.574219 81.675781 -137.925781 C 81.675781 -138.148438 81.449219 -138.601562 81.449219 -139.050781 C 81.675781 -142.199219 81.675781 -145.351562 81.675781 -148.5 C 81.675781 -150.300781 81.898438 -151.875 81.898438 -153.675781 C 81.898438 -153.898438 82.125 -154.125 82.125 -154.351562 L 82.125 -154.574219 C 82.125 -154.574219 81.898438 -154.574219 81.898438 -154.574219 L 81.898438 -155.25 C 81.898438 -155.476562 81.675781 -155.925781 81.898438 -156.375 C 81.898438 -156.824219 82.351562 -157.5 82.800781 -157.726562 C 83.25 -157.726562 83.476562 -157.5 83.925781 -157.5 C 87.75 -157.5 91.800781 -157.726562 95.851562 -157.726562 L 108.898438 -157.726562 C 109.351562 -157.726562 109.800781 -157.273438 110.25 -157.050781 C 110.476562 -156.824219 110.699219 -156.824219 110.699219 -156.601562 C 110.925781 -156.148438 110.925781 -155.699219 110.925781 -155.25 C 110.925781 -154.800781 111.375 -154.351562 111.375 -153.898438 C 111.375 -146.476562 111.148438 -146.476562 111.148438 -139.050781 L 111.148438 -124.199219 C 111.148438 -116.773438 110.925781 -116.773438 110.925781 -109.351562 C 110.925781 -101.699219 111.375 -101.699219 111.375 -94.273438 C 111.375 -80.773438 111.148438 -67.273438 111.148438 -53.773438 C 111.148438 -48.148438 110.925781 -42.523438 110.925781 -36.898438 C 110.925781 -31.273438 111.375 -25.425781 111.375 -19.800781 C 111.375 -14.175781 111.148438 -8.550781 111.148438 -2.925781 C 111.148438 -2.476562 111.375 -1.800781 111.375 -1.574219 C 111.148438 -0.675781 110.476562 0 109.574219 0.226562 L 108 0 C 104.851562 0 101.699219 -0.226562 98.550781 -0.226562 C 94.050781 -0.226562 89.324219 0 84.601562 0 C 84.148438 0 83.699219 -0.226562 83.25 -0.226562 C 82.574219 -0.226562 81.898438 -0.449219 81.675781 -1.125 C 81.675781 -1.351562 82.125 -1.800781 82.125 -2.023438 C 81.898438 -3.824219 81.449219 -5.398438 81.449219 -7.199219 C 81.449219 -7.648438 81.898438 -8.101562 81.898438 -8.550781 L 81.898438 -11.25 C 81.898438 -12.375 81.449219 -13.5 81.449219 -14.398438 C 81.449219 -14.851562 81.449219 -15.074219 81.449219 -15.300781 L 81.675781 -15.523438 C 81.675781 -15.523438 81.449219 -15.75 81.449219 -15.75 L 81.226562 -15.75 C 81.449219 -16.199219 81.675781 -16.875 81.675781 -17.324219 C 81.226562 -29.925781 81 -42.523438 79.648438 -55.125 C 79.648438 -55.574219 79.875 -56.25 79.648438 -56.699219 C 79.199219 -60.976562 78.074219 -65.023438 77.398438 -69.300781 L 77.398438 -69.523438 C 76.949219 -72.449219 76.5 -75.601562 75.824219 -78.523438 C 75.375 -80.101562 74.699219 -81.449219 74.25 -82.800781 C 74.25 -83.476562 73.800781 -83.25 73.574219 -83.699219 C 73.351562 -84.824219 73.574219 -85.726562 73.351562 -86.398438 C 72 -90.226562 70.199219 -93.824219 68.398438 -97.425781 C 68.398438 -97.875 68.398438 -97.875 68.175781 -98.101562 C 67.726562 -99 67.273438 -99.898438 66.824219 -100.800781 L 64.800781 -104.175781 C 64.800781 -104.398438 64.574219 -104.625 64.351562 -104.851562 C 64.351562 -104.851562 64.125 -104.851562 63.898438 -105.074219 L 63.449219 -105.523438 C 62.101562 -107.101562 60.976562 -109.351562 59.398438 -110.925781 C 59.175781 -111.375 58.5 -111.375 58.050781 -111.824219 L 57.375 -112.5 C 56.476562 -113.398438 55.574219 -114.523438 54.226562 -115.648438 C 53.101562 -116.773438 51.75 -117.675781 50.175781 -118.800781 C 49.5 -119.023438 48.824219 -119.476562 48.148438 -119.925781 C 47.925781 -119.925781 47.925781 -120.148438 47.699219 -120.148438 C 47.476562 -120.375 46.800781 -120.375 46.351562 -120.375 L 46.351562 -120.148438 C 45.675781 -120.148438 44.773438 -120.148438 44.550781 -119.476562 C 44.324219 -119.25 44.773438 -118.574219 44.550781 -117.898438 C 44.550781 -116.324219 44.324219 -114.75 44.324219 -112.949219 L 44.324219 -112.050781 C 44.324219 -106.875 44.550781 -101.699219 44.550781 -96.523438 C 44.550781 -91.574219 44.324219 -86.398438 44.324219 -81.226562 C 44.324219 -76.050781 44.550781 -70.875 44.550781 -65.699219 C 44.550781 -60.75 44.550781 -55.574219 44.550781 -50.398438 L 44.550781 -34.875 C 44.550781 -29.925781 44.101562 -24.75 44.101562 -19.574219 L 44.101562 -2.25 C 44.101562 -1.800781 44.550781 -1.351562 44.324219 -1.125 C 44.101562 -0.449219 43.648438 0 42.976562 0 C 42.300781 0.226562 41.398438 0.226562 40.726562 0.226562 Z M 40.726562 -0.226562 "/></g></g></g><g fill="#ffffff" fill-opacity="1"><g transform="translate(650.891046, 261.648425)"><g><path d="M 11.476562 -79.199219 C 11.476562 -83.925781 11.25 -88.875 11.25 -93.601562 C 11.25 -98.550781 11.699219 -103.273438 11.699219 -108.226562 C 11.699219 -112.949219 11.25 -117.898438 11.25 -122.625 L 11.25 -137.25 C 11.25 -141.976562 11.476562 -146.925781 11.476562 -151.648438 C 11.476562 -152.773438 11.476562 -153.675781 11.699219 -154.574219 C 11.925781 -155.476562 12.601562 -156.148438 13.273438 -156.601562 C 13.949219 -157.050781 14.625 -156.824219 15.523438 -157.050781 C 17.324219 -157.273438 19.125 -157.5 20.925781 -157.5 C 26.773438 -157.5 32.625 -156.824219 38.476562 -156.824219 C 48.148438 -157.050781 55.125 -157.273438 56.023438 -157.050781 C 57.148438 -157.050781 58.273438 -157.273438 59.175781 -157.273438 L 60.976562 -157.273438 C 61.648438 -157.050781 62.324219 -156.824219 62.773438 -156.824219 C 64.800781 -156.601562 66.601562 -155.699219 68.398438 -155.25 C 70.199219 -154.800781 72 -154.351562 73.800781 -153.675781 L 76.949219 -152.324219 C 77.625 -152.101562 78.523438 -151.425781 79.199219 -150.976562 C 80.101562 -150.75 80.773438 -150.300781 81.449219 -150.074219 C 81.675781 -149.851562 82.125 -150.074219 82.351562 -150.074219 L 87.300781 -146.699219 C 87.976562 -146.023438 88.875 -145.125 89.773438 -144.449219 C 90.449219 -143.773438 91.351562 -142.875 92.25 -142.199219 C 93.148438 -141.300781 93.601562 -140.175781 94.5 -139.273438 C 95.398438 -138.148438 96.75 -137.25 97.648438 -135.898438 C 98.324219 -135 99 -133.875 99.675781 -132.75 C 100.574219 -131.625 101.25 -130.5 101.925781 -129.375 L 102.148438 -128.476562 C 103.050781 -126.898438 103.5 -125.101562 104.175781 -123.300781 C 104.851562 -121.726562 105.074219 -120.148438 105.523438 -118.574219 C 105.976562 -117.449219 106.425781 -116.101562 106.648438 -114.976562 C 107.101562 -113.625 106.875 -112.273438 107.101562 -110.925781 C 107.101562 -110.023438 107.773438 -109.125 107.773438 -108 C 107.773438 -108 107.550781 -108 107.550781 -108 L 107.550781 -103.5 C 107.550781 -102.601562 107.324219 -101.699219 107.324219 -100.800781 C 107.324219 -100.125 107.324219 -99.675781 107.324219 -99.226562 L 106.648438 -94.726562 C 106.425781 -93.601562 106.425781 -92.476562 106.199219 -91.351562 C 105.75 -89.773438 104.851562 -88.425781 104.175781 -86.851562 C 103.726562 -85.726562 103.5 -84.375 103.050781 -83.25 C 102.375 -82.351562 101.925781 -81.226562 101.476562 -80.324219 C 101.023438 -79.425781 100.800781 -78.300781 100.351562 -77.398438 C 99.675781 -76.273438 98.773438 -75.601562 98.101562 -74.699219 C 97.199219 -73.351562 96.300781 -72 95.398438 -70.875 C 95.175781 -70.425781 95.175781 -70.199219 95.175781 -69.75 C 94.949219 -69.074219 94.726562 -68.398438 95.175781 -67.726562 C 95.625 -67.050781 96.074219 -66.375 96.75 -65.699219 C 97.648438 -64.125 99 -62.773438 99.898438 -61.199219 C 100.574219 -59.851562 101.25 -58.273438 101.699219 -56.925781 C 102.148438 -56.023438 102.824219 -55.351562 103.050781 -54.449219 C 103.726562 -52.875 103.726562 -51.300781 104.175781 -49.5 C 104.398438 -48.148438 105.300781 -46.574219 105.300781 -45.226562 C 105.523438 -44.324219 105.074219 -43.199219 105.074219 -42.300781 L 105.074219 -38.25 C 105.074219 -32.625 105.300781 -27 105.300781 -21.601562 C 105.300781 -15.976562 105.300781 -10.351562 105.300781 -4.949219 L 105.300781 -3.148438 C 105.074219 -2.476562 104.851562 -1.800781 104.398438 -1.351562 L 103.726562 -0.675781 C 103.050781 -0.226562 102.148438 0 101.476562 0 C 101.25 0 101.25 0 101.023438 0 L 78.074219 0 C 77.398438 0 76.726562 -0.226562 76.050781 -0.449219 C 74.925781 -0.898438 73.800781 -1.574219 73.574219 -2.925781 C 73.574219 -3.375 74.023438 -4.050781 74.023438 -4.5 C 74.023438 -9.675781 73.800781 -14.851562 73.800781 -20.023438 C 73.800781 -25.199219 74.023438 -30.375 74.023438 -35.550781 C 73.800781 -36.898438 73.351562 -38.476562 73.351562 -39.824219 C 73.125 -41.851562 72.898438 -43.648438 72.226562 -45.226562 C 71.550781 -46.351562 71.101562 -47.699219 70.199219 -48.601562 C 69.074219 -49.726562 67.726562 -50.398438 66.148438 -51.074219 C 65.476562 -51.523438 64.574219 -51.523438 63.898438 -51.75 C 62.550781 -51.976562 61.199219 -52.648438 59.851562 -52.648438 L 59.625 -52.648438 C 57.824219 -52.648438 56.023438 -52.425781 54 -52.425781 C 52.199219 -52.425781 50.398438 -52.199219 48.375 -52.199219 L 45.449219 -52.199219 C 45 -51.976562 44.101562 -52.199219 43.648438 -51.75 C 43.425781 -51.523438 43.199219 -51.300781 43.199219 -51.074219 C 42.976562 -50.625 42.976562 -49.949219 42.976562 -49.273438 C 42.75 -44.550781 43.199219 -39.601562 43.199219 -34.875 C 43.199219 -30.148438 42.976562 -25.199219 42.976562 -20.476562 C 42.976562 -15.75 43.199219 -10.800781 43.199219 -6.074219 C 43.199219 -5.398438 42.75 -4.949219 42.523438 -4.273438 C 42.523438 -3.375 42.300781 -2.476562 41.398438 -2.023438 C 41.175781 -1.800781 40.726562 -1.574219 40.050781 -1.351562 C 39.601562 -1.351562 38.925781 -1.125 38.25 -1.125 C 30.824219 -1.125 23.625 -1.351562 16.425781 -1.351562 C 15.75 -1.351562 14.851562 -0.898438 14.398438 -1.125 C 13.050781 -1.351562 12.375 -2.476562 11.925781 -3.824219 L 11.25 -5.851562 C 11.25 -6.300781 11.699219 -6.976562 11.699219 -7.425781 L 11.699219 -25.425781 C 11.699219 -31.5 11.699219 -37.351562 11.699219 -43.425781 L 11.699219 -61.199219 C 11.699219 -67.273438 11.476562 -73.125 11.476562 -79.199219 Z M 42.976562 -104.625 C 42.976562 -99.449219 43.199219 -94.5 43.199219 -89.324219 C 43.199219 -88.648438 42.976562 -87.976562 42.976562 -87.074219 L 42.976562 -86.625 C 42.976562 -86.175781 43.425781 -85.949219 43.425781 -85.726562 C 43.648438 -85.273438 43.875 -85.050781 44.324219 -84.601562 C 44.773438 -84.375 45.226562 -83.925781 45.898438 -83.925781 L 51.300781 -83.925781 C 53.101562 -84.148438 54.898438 -83.925781 56.699219 -84.148438 C 57.601562 -84.148438 58.726562 -83.925781 59.625 -84.148438 C 61.875 -84.601562 63.675781 -85.949219 65.699219 -87.074219 C 66.824219 -87.75 68.175781 -87.976562 69.074219 -88.875 C 69.75 -89.550781 70.425781 -90.226562 71.101562 -91.125 C 72 -92.023438 72.675781 -93.601562 73.351562 -94.726562 C 74.023438 -95.851562 74.25 -96.976562 74.699219 -98.101562 C 75.148438 -99.226562 75.601562 -100.351562 75.601562 -101.699219 C 75.824219 -102.601562 76.273438 -103.273438 76.273438 -104.175781 C 76.5 -105.300781 76.050781 -106.199219 76.050781 -107.324219 C 75.824219 -108.898438 75.375 -110.25 74.925781 -111.824219 C 74.476562 -113.175781 73.800781 -114.75 72.898438 -116.101562 L 70.648438 -118.800781 C 69.976562 -119.699219 68.625 -120.148438 67.726562 -120.824219 C 66.601562 -121.5 65.699219 -122.175781 64.574219 -122.851562 L 61.425781 -124.199219 C 60.523438 -124.425781 59.851562 -124.648438 58.949219 -124.648438 C 58.5 -124.875 57.824219 -125.324219 57.375 -125.324219 C 56.699219 -125.324219 55.800781 -125.101562 55.125 -125.101562 L 46.351562 -125.101562 C 45.898438 -125.101562 45.449219 -124.875 45 -124.875 C 44.101562 -124.875 43.648438 -123.976562 43.425781 -123.300781 C 43.425781 -122.175781 42.976562 -121.273438 42.976562 -120.148438 Z M 42.976562 -104.625 "/></g></g></g><g fill="#ffffff" fill-opacity="1"><g transform="translate(766.540864, 261.648425)"><g><path d="M 100.125 -98.324219 C 100.125 -92.25 100.800781 -86.175781 100.800781 -79.875 C 100.800781 -73.800781 100.574219 -67.5 100.574219 -61.425781 L 100.574219 -42.976562 C 100.574219 -42.300781 100.125 -41.625 100.125 -40.949219 C 100.351562 -40.273438 100.574219 -39.824219 100.574219 -39.375 C 100.574219 -38.25 100.351562 -37.351562 100.125 -36.226562 C 99.898438 -35.101562 99.675781 -33.976562 99.449219 -33.074219 L 98.773438 -28.800781 C 98.550781 -28.351562 98.324219 -27.675781 98.324219 -27.226562 C 98.101562 -27 97.875 -26.773438 97.875 -26.550781 C 97.425781 -25.425781 97.199219 -24.300781 96.75 -23.398438 C 96.074219 -22.050781 94.949219 -20.699219 94.050781 -19.351562 C 93.601562 -18.226562 93.148438 -17.101562 92.25 -16.199219 C 91.574219 -15.300781 90.898438 -14.398438 90.226562 -13.5 L 87.523438 -10.800781 C 86.851562 -10.351562 86.175781 -9.675781 85.726562 -9.226562 C 84.824219 -8.324219 83.699219 -7.875 82.800781 -6.976562 C 81.675781 -6.300781 80.550781 -5.398438 79.199219 -4.726562 C 78.300781 -4.273438 77.398438 -3.601562 76.273438 -3.148438 C 74.925781 -2.476562 73.800781 -1.574219 72.449219 -0.898438 C 71.550781 -0.675781 70.648438 -0.675781 69.976562 -0.449219 C 69.523438 -0.226562 68.851562 -0.226562 68.398438 0 C 68.175781 0 68.175781 0.226562 67.949219 0.449219 C 66.375 0.675781 65.023438 0.675781 63.449219 0.675781 C 62.773438 0.898438 61.875 1.125 61.199219 1.125 L 60.300781 1.125 C 60.074219 1.125 59.625 1.351562 59.398438 1.351562 L 59.398438 1.125 C 58.726562 0.898438 58.050781 1.800781 57.375 1.574219 C 56.476562 1.574219 55.574219 1.574219 54.449219 1.351562 C 53.550781 1.351562 52.425781 1.351562 51.523438 1.125 C 50.398438 0.898438 49.273438 0.675781 47.925781 0.449219 L 46.125 0 C 44.773438 -0.449219 43.425781 -1.125 42.074219 -1.574219 C 40.5 -2.25 38.699219 -2.699219 37.125 -3.601562 C 35.550781 -4.5 34.425781 -5.851562 33.074219 -6.75 C 31.949219 -7.425781 31.050781 -8.324219 30.148438 -9 C 28.800781 -10.125 27.449219 -10.800781 26.324219 -11.925781 C 25.648438 -12.601562 25.199219 -13.949219 24.523438 -14.625 C 23.625 -15.75 22.726562 -17.101562 22.050781 -18.226562 C 21.148438 -19.574219 19.800781 -20.925781 19.125 -22.5 C 18.226562 -24.074219 18 -26.101562 17.324219 -27.898438 L 16.425781 -30.824219 C 16.425781 -31.726562 15.976562 -32.398438 15.75 -33.300781 C 15.523438 -33.976562 15.523438 -34.648438 15.300781 -35.550781 C 15.074219 -36.449219 15.300781 -37.574219 15.300781 -38.699219 C 15.300781 -39.375 14.625 -40.050781 14.625 -40.726562 L 14.625 -42.300781 C 14.625 -47.699219 14.851562 -53.101562 14.851562 -58.5 C 14.851562 -63.675781 15.074219 -69.074219 15.074219 -74.476562 C 15.074219 -79.875 14.851562 -85.273438 14.851562 -90.449219 C 14.851562 -95.851562 14.851562 -101.25 14.851562 -106.648438 L 14.851562 -122.625 C 14.851562 -128.023438 15.074219 -133.425781 15.074219 -138.601562 C 15.074219 -144 14.851562 -149.398438 14.851562 -154.800781 C 14.851562 -155.25 15.074219 -155.699219 15.300781 -156.375 C 15.523438 -156.824219 15.523438 -157.5 16.199219 -157.726562 L 16.875 -157.726562 C 21.148438 -157.726562 25.425781 -157.273438 29.476562 -157.273438 C 33.75 -157.273438 37.800781 -157.5 42.074219 -157.5 C 42.300781 -157.5 42.523438 -157.273438 42.976562 -157.273438 C 43.425781 -157.273438 44.101562 -157.050781 44.101562 -156.824219 C 44.324219 -156.375 44.324219 -155.925781 44.324219 -155.476562 C 44.324219 -155.25 44.101562 -155.023438 44.101562 -154.800781 C 44.101562 -149.398438 44.324219 -144.226562 44.324219 -138.824219 L 44.324219 -123.074219 C 44.324219 -117.898438 43.875 -112.5 43.875 -107.324219 C 43.875 -101.925781 44.101562 -96.75 44.101562 -91.351562 C 44.101562 -86.175781 43.875 -80.773438 43.875 -75.601562 L 43.875 -59.851562 C 43.875 -54.449219 43.875 -49.273438 43.875 -43.875 L 43.875 -42.75 C 43.648438 -42.75 44.324219 -42.523438 44.324219 -42.300781 C 44.324219 -41.851562 43.875 -41.398438 43.875 -41.175781 C 44.101562 -40.5 44.101562 -39.601562 44.324219 -38.925781 C 44.550781 -37.800781 45 -36.675781 45.449219 -35.550781 C 45.898438 -34.648438 46.574219 -33.976562 47.25 -33.074219 C 48.148438 -31.949219 49.273438 -31.050781 50.625 -30.148438 C 51.75 -29.476562 53.101562 -28.800781 54.449219 -28.574219 C 55.351562 -28.125 56.25 -27.898438 57.148438 -27.898438 C 58.726562 -27.898438 60.074219 -28.351562 61.648438 -28.800781 C 63.226562 -29.25 64.800781 -29.925781 66.148438 -31.050781 C 66.824219 -31.5 67.273438 -31.949219 67.726562 -32.398438 C 68.175781 -32.851562 68.851562 -33.300781 69.074219 -33.75 C 69.75 -34.875 70.199219 -36 70.425781 -37.125 C 70.875 -38.023438 71.324219 -38.925781 71.324219 -39.824219 C 71.324219 -40.5 71.550781 -41.175781 71.550781 -41.851562 C 71.550781 -42.074219 71.550781 -42.300781 71.550781 -42.300781 L 71.550781 -42.976562 C 71.550781 -43.425781 70.875 -43.875 70.875 -44.324219 C 70.875 -49.726562 71.324219 -54.898438 71.324219 -60.300781 C 71.324219 -65.476562 71.101562 -70.648438 71.101562 -76.050781 L 71.101562 -91.800781 C 71.101562 -96.976562 71.550781 -102.148438 71.550781 -107.550781 C 71.550781 -112.726562 71.101562 -117.898438 71.101562 -123.300781 C 71.101562 -128.476562 71.324219 -133.648438 71.324219 -139.050781 C 71.324219 -144.226562 71.550781 -149.398438 71.550781 -154.800781 C 71.550781 -155.25 71.101562 -155.699219 71.324219 -156.148438 C 71.550781 -157.050781 72 -157.273438 72.898438 -157.273438 C 73.125 -157.273438 73.351562 -157.726562 73.351562 -157.726562 C 77.625 -157.726562 81.675781 -157.273438 85.949219 -157.273438 C 90 -157.273438 94.273438 -157.726562 98.324219 -157.726562 C 98.773438 -157.726562 99 -157.726562 99.449219 -157.5 C 99.898438 -157.5 100.125 -157.050781 100.125 -156.601562 L 100.574219 -155.476562 C 100.574219 -155.25 100.125 -154.800781 100.125 -154.574219 C 100.125 -148.5 100.574219 -142.199219 100.574219 -135.898438 C 100.574219 -129.601562 100.351562 -123.300781 100.351562 -117.226562 C 100.351562 -110.925781 100.125 -104.625 100.125 -98.324219 Z M 100.125 -98.324219 "/></g></g></g><g fill="#ffffff" fill-opacity="1"><g transform="translate(881.965646, 261.648425)"><g><path d="M 40.726562 -0.226562 C 37.800781 -0.226562 34.875 0 31.726562 0 C 27 0 22.5 0.226562 17.773438 0.226562 C 17.324219 0.226562 16.648438 -0.226562 16.199219 -0.449219 C 15.75 -0.449219 15.074219 -0.449219 14.851562 -1.125 C 14.851562 -1.351562 14.851562 -1.574219 14.625 -1.800781 L 14.851562 -2.023438 C 14.851562 -2.25 15.074219 -2.476562 15.074219 -2.476562 C 15.074219 -2.699219 14.625 -2.699219 14.625 -2.699219 L 14.851562 -2.925781 C 14.851562 -3.148438 14.851562 -3.375 14.851562 -3.375 L 14.625 -4.273438 C 14.625 -9.898438 14.851562 -15.300781 14.851562 -20.925781 C 14.851562 -26.324219 15.074219 -31.949219 15.074219 -37.351562 C 15.074219 -42.976562 15.074219 -48.375 15.074219 -54 L 15.074219 -70.425781 C 15.074219 -76.050781 14.625 -81.449219 14.625 -87.074219 L 14.625 -103.5 C 14.625 -109.125 14.851562 -114.523438 14.851562 -120.148438 C 14.851562 -125.550781 14.851562 -131.175781 14.851562 -136.574219 L 14.851562 -153.226562 C 14.851562 -153.449219 15.074219 -153.675781 14.851562 -153.898438 C 14.851562 -154.125 14.625 -154.351562 14.625 -154.574219 C 14.625 -154.800781 15.074219 -155.023438 15.074219 -155.023438 C 15.074219 -155.476562 14.851562 -155.925781 14.851562 -156.375 C 15.074219 -156.824219 15.523438 -157.273438 15.976562 -157.5 C 16.425781 -157.5 16.648438 -157.726562 16.875 -157.726562 L 18.226562 -157.726562 C 19.125 -157.726562 20.25 -157.273438 21.148438 -157.273438 C 25.199219 -157.273438 29.925781 -157.5 33.976562 -157.273438 C 34.648438 -157.050781 34.875 -156.601562 35.324219 -156.601562 C 40.050781 -156.148438 44.324219 -155.476562 49.050781 -154.125 C 52.875 -153.226562 56.476562 -152.101562 60.300781 -150.523438 C 60.75 -150.300781 61.425781 -150.074219 61.648438 -149.625 L 62.324219 -148.949219 C 62.550781 -148.726562 63 -148.726562 63.449219 -148.726562 C 64.800781 -148.273438 66.601562 -146.925781 67.949219 -146.023438 L 72 -143.101562 C 72.675781 -142.648438 73.125 -142.199219 73.800781 -141.75 L 74.476562 -141.074219 C 75.601562 -140.175781 76.726562 -139.050781 77.851562 -137.699219 C 78.300781 -137.25 78.300781 -137.023438 78.75 -136.800781 C 79.199219 -136.351562 79.648438 -136.351562 80.101562 -136.351562 C 80.550781 -136.351562 81.226562 -136.574219 81.675781 -137.925781 C 81.675781 -138.148438 81.449219 -138.601562 81.449219 -139.050781 C 81.675781 -142.199219 81.675781 -145.351562 81.675781 -148.5 C 81.675781 -150.300781 81.898438 -151.875 81.898438 -153.675781 C 81.898438 -153.898438 82.125 -154.125 82.125 -154.351562 L 82.125 -154.574219 C 82.125 -154.574219 81.898438 -154.574219 81.898438 -154.574219 L 81.898438 -155.25 C 81.898438 -155.476562 81.675781 -155.925781 81.898438 -156.375 C 81.898438 -156.824219 82.351562 -157.5 82.800781 -157.726562 C 83.25 -157.726562 83.476562 -157.5 83.925781 -157.5 C 87.75 -157.5 91.800781 -157.726562 95.851562 -157.726562 L 108.898438 -157.726562 C 109.351562 -157.726562 109.800781 -157.273438 110.25 -157.050781 C 110.476562 -156.824219 110.699219 -156.824219 110.699219 -156.601562 C 110.925781 -156.148438 110.925781 -155.699219 110.925781 -155.25 C 110.925781 -154.800781 111.375 -154.351562 111.375 -153.898438 C 111.375 -146.476562 111.148438 -146.476562 111.148438 -139.050781 L 111.148438 -124.199219 C 111.148438 -116.773438 110.925781 -116.773438 110.925781 -109.351562 C 110.925781 -101.699219 111.375 -101.699219 111.375 -94.273438 C 111.375 -80.773438 111.148438 -67.273438 111.148438 -53.773438 C 111.148438 -48.148438 110.925781 -42.523438 110.925781 -36.898438 C 110.925781 -31.273438 111.375 -25.425781 111.375 -19.800781 C 111.375 -14.175781 111.148438 -8.550781 111.148438 -2.925781 C 111.148438 -2.476562 111.375 -1.800781 111.375 -1.574219 C 111.148438 -0.675781 110.476562 0 109.574219 0.226562 L 108 0 C 104.851562 0 101.699219 -0.226562 98.550781 -0.226562 C 94.050781 -0.226562 89.324219 0 84.601562 0 C 84.148438 0 83.699219 -0.226562 83.25 -0.226562 C 82.574219 -0.226562 81.898438 -0.449219 81.675781 -1.125 C 81.675781 -1.351562 82.125 -1.800781 82.125 -2.023438 C 81.898438 -3.824219 81.449219 -5.398438 81.449219 -7.199219 C 81.449219 -7.648438 81.898438 -8.101562 81.898438 -8.550781 L 81.898438 -11.25 C 81.898438 -12.375 81.449219 -13.5 81.449219 -14.398438 C 81.449219 -14.851562 81.449219 -15.074219 81.449219 -15.300781 L 81.675781 -15.523438 C 81.675781 -15.523438 81.449219 -15.75 81.449219 -15.75 L 81.226562 -15.75 C 81.449219 -16.199219 81.675781 -16.875 81.675781 -17.324219 C 81.226562 -29.925781 81 -42.523438 79.648438 -55.125 C 79.648438 -55.574219 79.875 -56.25 79.648438 -56.699219 C 79.199219 -60.976562 78.074219 -65.023438 77.398438 -69.300781 L 77.398438 -69.523438 C 76.949219 -72.449219 76.5 -75.601562 75.824219 -78.523438 C 75.375 -80.101562 74.699219 -81.449219 74.25 -82.800781 C 74.25 -83.476562 73.800781 -83.25 73.574219 -83.699219 C 73.351562 -84.824219 73.574219 -85.726562 73.351562 -86.398438 C 72 -90.226562 70.199219 -93.824219 68.398438 -97.425781 C 68.398438 -97.875 68.398438 -97.875 68.175781 -98.101562 C 67.726562 -99 67.273438 -99.898438 66.824219 -100.800781 L 64.800781 -104.175781 C 64.800781 -104.398438 64.574219 -104.625 64.351562 -104.851562 C 64.351562 -104.851562 64.125 -104.851562 63.898438 -105.074219 L 63.449219 -105.523438 C 62.101562 -107.101562 60.976562 -109.351562 59.398438 -110.925781 C 59.175781 -111.375 58.5 -111.375 58.050781 -111.824219 L 57.375 -112.5 C 56.476562 -113.398438 55.574219 -114.523438 54.226562 -115.648438 C 53.101562 -116.773438 51.75 -117.675781 50.175781 -118.800781 C 49.5 -119.023438 48.824219 -119.476562 48.148438 -119.925781 C 47.925781 -119.925781 47.925781 -120.148438 47.699219 -120.148438 C 47.476562 -120.375 46.800781 -120.375 46.351562 -120.375 L 46.351562 -120.148438 C 45.675781 -120.148438 44.773438 -120.148438 44.550781 -119.476562 C 44.324219 -119.25 44.773438 -118.574219 44.550781 -117.898438 C 44.550781 -116.324219 44.324219 -114.75 44.324219 -112.949219 L 44.324219 -112.050781 C 44.324219 -106.875 44.550781 -101.699219 44.550781 -96.523438 C 44.550781 -91.574219 44.324219 -86.398438 44.324219 -81.226562 C 44.324219 -76.050781 44.550781 -70.875 44.550781 -65.699219 C 44.550781 -60.75 44.550781 -55.574219 44.550781 -50.398438 L 44.550781 -34.875 C 44.550781 -29.925781 44.101562 -24.75 44.101562 -19.574219 L 44.101562 -2.25 C 44.101562 -1.800781 44.550781 -1.351562 44.324219 -1.125 C 44.101562 -0.449219 43.648438 0 42.976562 0 C 42.300781 0.226562 41.398438 0.226562 40.726562 0.226562 Z M 40.726562 -0.226562 "/></g></g></g><g fill="#ffffff" fill-opacity="1"><g transform="translate(1007.965405, 261.648425)"><g><path d="M 40.726562 -0.226562 C 37.800781 -0.226562 34.875 0 31.726562 0 C 27 0 22.5 0.226562 17.773438 0.226562 C 17.324219 0.226562 16.648438 -0.226562 16.199219 -0.449219 C 15.75 -0.449219 15.074219 -0.449219 14.851562 -1.125 C 14.851562 -1.351562 14.851562 -1.574219 14.625 -1.800781 L 14.851562 -2.023438 C 14.851562 -2.25 15.074219 -2.476562 15.074219 -2.476562 C 15.074219 -2.699219 14.625 -2.699219 14.625 -2.699219 L 14.851562 -2.925781 C 14.851562 -3.148438 14.851562 -3.375 14.851562 -3.375 L 14.625 -4.273438 C 14.625 -9.898438 14.851562 -15.300781 14.851562 -20.925781 C 14.851562 -26.324219 15.074219 -31.949219 15.074219 -37.351562 C 15.074219 -42.976562 15.074219 -48.375 15.074219 -54 L 15.074219 -70.425781 C 15.074219 -76.050781 14.625 -81.449219 14.625 -87.074219 L 14.625 -103.5 C 14.625 -109.125 14.851562 -114.523438 14.851562 -120.148438 C 14.851562 -125.550781 14.851562 -131.175781 14.851562 -136.574219 L 14.851562 -153.226562 C 14.851562 -153.449219 15.074219 -153.675781 14.851562 -153.898438 C 14.851562 -154.125 14.625 -154.351562 14.625 -154.574219 C 14.625 -154.800781 15.074219 -155.023438 15.074219 -155.023438 C 15.074219 -155.476562 14.851562 -155.925781 14.851562 -156.375 C 15.074219 -156.824219 15.523438 -157.273438 15.976562 -157.5 C 16.425781 -157.5 16.648438 -157.726562 16.875 -157.726562 L 18.226562 -157.726562 C 19.125 -157.726562 20.25 -157.273438 21.148438 -157.273438 C 25.199219 -157.273438 29.925781 -157.5 33.976562 -157.273438 C 34.648438 -157.050781 34.875 -156.601562 35.324219 -156.601562 C 40.050781 -156.148438 44.324219 -155.476562 49.050781 -154.125 C 52.875 -153.226562 56.476562 -152.101562 60.300781 -150.523438 C 60.75 -150.300781 61.425781 -150.074219 61.648438 -149.625 L 62.324219 -148.949219 C 62.550781 -148.726562 63 -148.726562 63.449219 -148.726562 C 64.800781 -148.273438 66.601562 -146.925781 67.949219 -146.023438 L 72 -143.101562 C 72.675781 -142.648438 73.125 -142.199219 73.800781 -141.75 L 74.476562 -141.074219 C 75.601562 -140.175781 76.726562 -139.050781 77.851562 -137.699219 C 78.300781 -137.25 78.300781 -137.023438 78.75 -136.800781 C 79.199219 -136.351562 79.648438 -136.351562 80.101562 -136.351562 C 80.550781 -136.351562 81.226562 -136.574219 81.675781 -137.925781 C 81.675781 -138.148438 81.449219 -138.601562 81.449219 -139.050781 C 81.675781 -142.199219 81.675781 -145.351562 81.675781 -148.5 C 81.675781 -150.300781 81.898438 -151.875 81.898438 -153.675781 C 81.898438 -153.898438 82.125 -154.125 82.125 -154.351562 L 82.125 -154.574219 C 82.125 -154.574219 81.898438 -154.574219 81.898438 -154.574219 L 81.898438 -155.25 C 81.898438 -155.476562 81.675781 -155.925781 81.898438 -156.375 C 81.898438 -156.824219 82.351562 -157.5 82.800781 -157.726562 C 83.25 -157.726562 83.476562 -157.5 83.925781 -157.5 C 87.75 -157.5 91.800781 -157.726562 95.851562 -157.726562 L 108.898438 -157.726562 C 109.351562 -157.726562 109.800781 -157.273438 110.25 -157.050781 C 110.476562 -156.824219 110.699219 -156.824219 110.699219 -156.601562 C 110.925781 -156.148438 110.925781 -155.699219 110.925781 -155.25 C 110.925781 -154.800781 111.375 -154.351562 111.375 -153.898438 C 111.375 -146.476562 111.148438 -146.476562 111.148438 -139.050781 L 111.148438 -124.199219 C 111.148438 -116.773438 110.925781 -116.773438 110.925781 -109.351562 C 110.925781 -101.699219 111.375 -101.699219 111.375 -94.273438 C 111.375 -80.773438 111.148438 -67.273438 111.148438 -53.773438 C 111.148438 -48.148438 110.925781 -42.523438 110.925781 -36.898438 C 110.925781 -31.273438 111.375 -25.425781 111.375 -19.800781 C 111.375 -14.175781 111.148438 -8.550781 111.148438 -2.925781 C 111.148438 -2.476562 111.375 -1.800781 111.375 -1.574219 C 111.148438 -0.675781 110.476562 0 109.574219 0.226562 L 108 0 C 104.851562 0 101.699219 -0.226562 98.550781 -0.226562 C 94.050781 -0.226562 89.324219 0 84.601562 0 C 84.148438 0 83.699219 -0.226562 83.25 -0.226562 C 82.574219 -0.226562 81.898438 -0.449219 81.675781 -1.125 C 81.675781 -1.351562 82.125 -1.800781 82.125 -2.023438 C 81.898438 -3.824219 81.449219 -5.398438 81.449219 -7.199219 C 81.449219 -7.648438 81.898438 -8.101562 81.898438 -8.550781 L 81.898438 -11.25 C 81.898438 -12.375 81.449219 -13.5 81.449219 -14.398438 C 81.449219 -14.851562 81.449219 -15.074219 81.449219 -15.300781 L 81.675781 -15.523438 C 81.675781 -15.523438 81.449219 -15.75 81.449219 -15.75 L 81.226562 -15.75 C 81.449219 -16.199219 81.675781 -16.875 81.675781 -17.324219 C 81.226562 -29.925781 81 -42.523438 79.648438 -55.125 C 79.648438 -55.574219 79.875 -56.25 79.648438 -56.699219 C 79.199219 -60.976562 78.074219 -65.023438 77.398438 -69.300781 L 77.398438 -69.523438 C 76.949219 -72.449219 76.5 -75.601562 75.824219 -78.523438 C 75.375 -80.101562 74.699219 -81.449219 74.25 -82.800781 C 74.25 -83.476562 73.800781 -83.25 73.574219 -83.699219 C 73.351562 -84.824219 73.574219 -85.726562 73.351562 -86.398438 C 72 -90.226562 70.199219 -93.824219 68.398438 -97.425781 C 68.398438 -97.875 68.398438 -97.875 68.175781 -98.101562 C 67.726562 -99 67.273438 -99.898438 66.824219 -100.800781 L 64.800781 -104.175781 C 64.800781 -104.398438 64.574219 -104.625 64.351562 -104.851562 C 64.351562 -104.851562 64.125 -104.851562 63.898438 -105.074219 L 63.449219 -105.523438 C 62.101562 -107.101562 60.976562 -109.351562 59.398438 -110.925781 C 59.175781 -111.375 58.5 -111.375 58.050781 -111.824219 L 57.375 -112.5 C 56.476562 -113.398438 55.574219 -114.523438 54.226562 -115.648438 C 53.101562 -116.773438 51.75 -117.675781 50.175781 -118.800781 C 49.5 -119.023438 48.824219 -119.476562 48.148438 -119.925781 C 47.925781 -119.925781 47.925781 -120.148438 47.699219 -120.148438 C 47.476562 -120.375 46.800781 -120.375 46.351562 -120.375 L 46.351562 -120.148438 C 45.675781 -120.148438 44.773438 -120.148438 44.550781 -119.476562 C 44.324219 -119.25 44.773438 -118.574219 44.550781 -117.898438 C 44.550781 -116.324219 44.324219 -114.75 44.324219 -112.949219 L 44.324219 -112.050781 C 44.324219 -106.875 44.550781 -101.699219 44.550781 -96.523438 C 44.550781 -91.574219 44.324219 -86.398438 44.324219 -81.226562 C 44.324219 -76.050781 44.550781 -70.875 44.550781 -65.699219 C 44.550781 -60.75 44.550781 -55.574219 44.550781 -50.398438 L 44.550781 -34.875 C 44.550781 -29.925781 44.101562 -24.75 44.101562 -19.574219 L 44.101562 -2.25 C 44.101562 -1.800781 44.550781 -1.351562 44.324219 -1.125 C 44.101562 -0.449219 43.648438 0 42.976562 0 C 42.300781 0.226562 41.398438 0.226562 40.726562 0.226562 Z M 40.726562 -0.226562 "/></g></g></g><g fill="#ffffff" fill-opacity="1"><g transform="translate(1133.965165, 261.648425)"><g><path d="M 5.625 -81.675781 C 5.625 -83.25 5.851562 -84.824219 6.300781 -86.398438 C 5.175781 -86.851562 7.875 -96.75 8.324219 -98.324219 C 9.898438 -105.523438 12.824219 -112.5 16.199219 -118.800781 C 17.773438 -121.273438 19.351562 -123.976562 21.148438 -126.226562 C 24.976562 -131.398438 29.699219 -136.574219 34.648438 -140.625 C 35.324219 -141.300781 36 -141.75 36.675781 -142.199219 C 36.898438 -142.425781 37.351562 -142.648438 37.574219 -143.101562 L 44.550781 -147.824219 C 45 -148.050781 45.898438 -148.050781 46.351562 -148.5 C 47.023438 -148.726562 47.699219 -149.175781 48.375 -149.398438 C 48.601562 -149.625 48.601562 -150.074219 48.824219 -150.074219 C 48.824219 -150.300781 49.050781 -150.074219 49.273438 -150.074219 C 49.726562 -150.523438 50.398438 -150.976562 51.074219 -151.199219 C 51.523438 -151.648438 52.199219 -151.648438 52.648438 -152.101562 C 53.101562 -152.101562 53.324219 -152.550781 53.550781 -152.550781 C 54.675781 -153 55.800781 -153.226562 56.699219 -153.675781 C 57.601562 -153.898438 58.726562 -154.125 59.625 -154.574219 C 60.074219 -154.574219 60.300781 -155.25 60.75 -155.25 C 60.976562 -155.476562 61.425781 -155.476562 61.875 -155.476562 C 62.101562 -155.699219 62.550781 -155.476562 62.773438 -155.476562 C 63.226562 -155.699219 63.675781 -155.699219 64.125 -155.925781 C 64.574219 -155.925781 65.023438 -156.375 65.476562 -156.601562 C 65.925781 -156.824219 66.375 -156.824219 66.824219 -156.824219 L 71.324219 -157.949219 C 72.226562 -157.949219 73.351562 -157.949219 74.476562 -158.175781 C 75.148438 -158.175781 75.824219 -158.625 76.5 -158.625 C 77.625 -158.851562 78.523438 -158.625 79.648438 -158.851562 C 82.125 -159.074219 84.601562 -158.398438 85.949219 -156.148438 C 86.398438 -155.476562 86.398438 -154.574219 86.625 -153.898438 C 87.074219 -150.074219 87.300781 -146.25 87.300781 -142.425781 C 87.300781 -140.175781 87.300781 -137.925781 87.074219 -135.898438 C 86.851562 -131.625 85.949219 -127.574219 81 -126.898438 L 80.101562 -126.898438 C 79.648438 -126.675781 79.199219 -126.898438 78.75 -126.898438 L 75.601562 -126.226562 C 62.550781 -123.300781 50.398438 -114.523438 43.875 -102.824219 C 43.425781 -101.925781 43.425781 -101.023438 42.976562 -100.125 L 42.074219 -98.550781 C 42.074219 -98.101562 42.523438 -97.875 42.523438 -97.648438 C 42.523438 -97.199219 42.300781 -96.75 42.75 -96.300781 C 42.976562 -95.851562 43.425781 -95.398438 43.875 -95.175781 C 44.773438 -94.949219 45.449219 -95.175781 46.351562 -95.175781 C 47.25 -95.175781 48.375 -94.949219 49.273438 -94.949219 C 49.5 -94.949219 49.5 -94.949219 49.5 -94.949219 L 50.175781 -94.949219 C 50.398438 -95.175781 50.625 -94.726562 50.851562 -94.726562 C 55.125 -94.726562 59.398438 -94.726562 63.675781 -94.949219 C 65.925781 -94.949219 67.949219 -94.949219 69.976562 -95.175781 C 71.773438 -95.175781 73.574219 -94.726562 75.375 -94.726562 L 75.824219 -94.726562 C 77.398438 -94.726562 79.648438 -94.726562 81 -94.273438 C 81.226562 -94.050781 81.226562 -94.050781 81.449219 -94.050781 C 82.800781 -93.148438 83.699219 -91.800781 83.925781 -90.226562 C 84.148438 -89.324219 84.148438 -88.199219 84.148438 -87.300781 C 84.148438 -85.726562 84.148438 -83.925781 84.148438 -82.351562 L 84.148438 -74.023438 C 84.148438 -73.800781 83.925781 -73.574219 83.925781 -73.574219 C 83.925781 -73.351562 84.375 -73.125 84.375 -72.675781 C 84.375 -70.199219 84.375 -66.148438 82.125 -64.351562 C 80.324219 -63 78.523438 -62.773438 76.5 -62.773438 C 75.148438 -62.773438 74.023438 -62.773438 72.675781 -63 C 68.625 -63.226562 64.125 -62.773438 60.074219 -62.773438 C 55.574219 -62.773438 51.300781 -63 47.023438 -63 C 46.125 -63 45 -63 44.101562 -62.550781 C 43.425781 -62.324219 42.976562 -61.875 42.75 -61.425781 C 42.300781 -60.976562 42.074219 -60.523438 42.074219 -60.074219 C 42.074219 -59.625 41.851562 -59.175781 42.074219 -58.726562 C 42.074219 -58.050781 42.523438 -57.601562 42.976562 -56.925781 C 42.976562 -56.699219 42.976562 -56.476562 42.976562 -56.25 L 44.550781 -53.550781 C 45.226562 -52.199219 46.574219 -51.074219 47.476562 -49.726562 C 49.050781 -47.476562 50.851562 -45.898438 52.875 -43.875 C 53.773438 -43.199219 54.226562 -42.074219 55.125 -41.175781 C 57.375 -39.375 60.75 -37.800781 63.449219 -36.226562 C 67.273438 -34.199219 71.550781 -32.398438 75.824219 -31.5 C 76.273438 -31.273438 76.949219 -31.273438 77.625 -31.273438 C 78.523438 -31.050781 79.425781 -31.050781 80.101562 -30.824219 C 81.226562 -30.601562 82.125 -30.375 83.25 -29.925781 C 83.925781 -29.699219 84.375 -29.25 85.050781 -28.574219 C 85.5 -28.125 85.949219 -27.898438 86.175781 -27.449219 C 86.851562 -26.324219 86.851562 -25.648438 86.851562 -24.976562 C 86.851562 -24.523438 86.851562 -24.074219 86.851562 -23.625 L 86.851562 -22.726562 C 87.074219 -20.925781 87.074219 -19.125 87.074219 -17.324219 C 87.074219 -15.300781 87.074219 -13.5 86.851562 -11.476562 C 86.851562 -9.675781 86.851562 -7.875 86.625 -6.074219 C 86.625 -4.726562 86.851562 -2.699219 86.398438 -1.574219 C 86.398438 -1.125 85.949219 -0.675781 85.726562 -0.226562 L 85.050781 0.226562 C 84.824219 0.449219 84.148438 0.675781 83.925781 0.675781 C 82.574219 1.351562 81.449219 1.574219 80.324219 1.574219 C 79.425781 1.574219 78.523438 1.574219 77.851562 1.125 C 76.949219 0.898438 76.050781 1.125 75.148438 1.125 C 73.800781 0.898438 72.449219 0.675781 71.324219 0.226562 C 71.101562 0.226562 70.648438 0.449219 70.425781 0.226562 C 69.523438 0.226562 68.851562 -0.449219 67.949219 -0.675781 C 67.5 -0.898438 66.824219 -0.449219 66.148438 -0.675781 C 65.023438 -0.898438 63.675781 -1.351562 62.550781 -1.800781 C 60.300781 -2.699219 58.050781 -3.824219 55.800781 -4.5 C 53.773438 -5.175781 51.75 -5.625 49.949219 -6.523438 C 49.5 -6.75 49.050781 -7.199219 49.5 -7.648438 C 48.148438 -6.523438 41.398438 -12.148438 40.5 -12.824219 C 39.601562 -13.273438 38.699219 -13.5 37.800781 -14.175781 C 37.125 -14.851562 36.226562 -15.523438 35.324219 -16.199219 C 33.523438 -17.550781 31.949219 -19.574219 30.148438 -21.148438 C 27 -23.851562 23.851562 -27.675781 21.148438 -31.050781 L 19.351562 -33.523438 C 18.449219 -34.875 18 -36.449219 17.101562 -38.023438 C 16.648438 -38.699219 16.199219 -39.148438 15.75 -39.824219 L 15.523438 -40.726562 C 14.175781 -42.976562 12.601562 -45.449219 11.699219 -47.699219 C 10.800781 -50.625 9.449219 -53.324219 8.773438 -56.023438 L 8.101562 -58.273438 C 7.875 -58.949219 8.101562 -59.625 7.875 -60.300781 C 7.648438 -61.199219 7.648438 -61.875 7.648438 -62.773438 C 7.425781 -63.675781 6.75 -64.351562 6.523438 -65.25 C 6.300781 -66.601562 6.300781 -67.949219 6.074219 -69.300781 C 5.851562 -71.101562 5.851562 -72.675781 5.851562 -74.476562 C 5.625 -76.726562 5.625 -79.199219 5.625 -81.675781 Z M 5.625 -81.675781 "/></g></g></g><g fill="#ffffff" fill-opacity="1"><g transform="translate(1232.514993, 261.648425)"><g><path d="M 11.476562 -79.199219 C 11.476562 -83.925781 11.25 -88.875 11.25 -93.601562 C 11.25 -98.550781 11.699219 -103.273438 11.699219 -108.226562 C 11.699219 -112.949219 11.25 -117.898438 11.25 -122.625 L 11.25 -137.25 C 11.25 -141.976562 11.476562 -146.925781 11.476562 -151.648438 C 11.476562 -152.773438 11.476562 -153.675781 11.699219 -154.574219 C 11.925781 -155.476562 12.601562 -156.148438 13.273438 -156.601562 C 13.949219 -157.050781 14.625 -156.824219 15.523438 -157.050781 C 17.324219 -157.273438 19.125 -157.5 20.925781 -157.5 C 26.773438 -157.5 32.625 -156.824219 38.476562 -156.824219 C 48.148438 -157.050781 55.125 -157.273438 56.023438 -157.050781 C 57.148438 -157.050781 58.273438 -157.273438 59.175781 -157.273438 L 60.976562 -157.273438 C 61.648438 -157.050781 62.324219 -156.824219 62.773438 -156.824219 C 64.800781 -156.601562 66.601562 -155.699219 68.398438 -155.25 C 70.199219 -154.800781 72 -154.351562 73.800781 -153.675781 L 76.949219 -152.324219 C 77.625 -152.101562 78.523438 -151.425781 79.199219 -150.976562 C 80.101562 -150.75 80.773438 -150.300781 81.449219 -150.074219 C 81.675781 -149.851562 82.125 -150.074219 82.351562 -150.074219 L 87.300781 -146.699219 C 87.976562 -146.023438 88.875 -145.125 89.773438 -144.449219 C 90.449219 -143.773438 91.351562 -142.875 92.25 -142.199219 C 93.148438 -141.300781 93.601562 -140.175781 94.5 -139.273438 C 95.398438 -138.148438 96.75 -137.25 97.648438 -135.898438 C 98.324219 -135 99 -133.875 99.675781 -132.75 C 100.574219 -131.625 101.25 -130.5 101.925781 -129.375 L 102.148438 -128.476562 C 103.050781 -126.898438 103.5 -125.101562 104.175781 -123.300781 C 104.851562 -121.726562 105.074219 -120.148438 105.523438 -118.574219 C 105.976562 -117.449219 106.425781 -116.101562 106.648438 -114.976562 C 107.101562 -113.625 106.875 -112.273438 107.101562 -110.925781 C 107.101562 -110.023438 107.773438 -109.125 107.773438 -108 C 107.773438 -108 107.550781 -108 107.550781 -108 L 107.550781 -103.5 C 107.550781 -102.601562 107.324219 -101.699219 107.324219 -100.800781 C 107.324219 -100.125 107.324219 -99.675781 107.324219 -99.226562 L 106.648438 -94.726562 C 106.425781 -93.601562 106.425781 -92.476562 106.199219 -91.351562 C 105.75 -89.773438 104.851562 -88.425781 104.175781 -86.851562 C 103.726562 -85.726562 103.5 -84.375 103.050781 -83.25 C 102.375 -82.351562 101.925781 -81.226562 101.476562 -80.324219 C 101.023438 -79.425781 100.800781 -78.300781 100.351562 -77.398438 C 99.675781 -76.273438 98.773438 -75.601562 98.101562 -74.699219 C 97.199219 -73.351562 96.300781 -72 95.398438 -70.875 C 95.175781 -70.425781 95.175781 -70.199219 95.175781 -69.75 C 94.949219 -69.074219 94.726562 -68.398438 95.175781 -67.726562 C 95.625 -67.050781 96.074219 -66.375 96.75 -65.699219 C 97.648438 -64.125 99 -62.773438 99.898438 -61.199219 C 100.574219 -59.851562 101.25 -58.273438 101.699219 -56.925781 C 102.148438 -56.023438 102.824219 -55.351562 103.050781 -54.449219 C 103.726562 -52.875 103.726562 -51.300781 104.175781 -49.5 C 104.398438 -48.148438 105.300781 -46.574219 105.300781 -45.226562 C 105.523438 -44.324219 105.074219 -43.199219 105.074219 -42.300781 L 105.074219 -38.25 C 105.074219 -32.625 105.300781 -27 105.300781 -21.601562 C 105.300781 -15.976562 105.300781 -10.351562 105.300781 -4.949219 L 105.300781 -3.148438 C 105.074219 -2.476562 104.851562 -1.800781 104.398438 -1.351562 L 103.726562 -0.675781 C 103.050781 -0.226562 102.148438 0 101.476562 0 C 101.25 0 101.25 0 101.023438 0 L 78.074219 0 C 77.398438 0 76.726562 -0.226562 76.050781 -0.449219 C 74.925781 -0.898438 73.800781 -1.574219 73.574219 -2.925781 C 73.574219 -3.375 74.023438 -4.050781 74.023438 -4.5 C 74.023438 -9.675781 73.800781 -14.851562 73.800781 -20.023438 C 73.800781 -25.199219 74.023438 -30.375 74.023438 -35.550781 C 73.800781 -36.898438 73.351562 -38.476562 73.351562 -39.824219 C 73.125 -41.851562 72.898438 -43.648438 72.226562 -45.226562 C 71.550781 -46.351562 71.101562 -47.699219 70.199219 -48.601562 C 69.074219 -49.726562 67.726562 -50.398438 66.148438 -51.074219 C 65.476562 -51.523438 64.574219 -51.523438 63.898438 -51.75 C 62.550781 -51.976562 61.199219 -52.648438 59.851562 -52.648438 L 59.625 -52.648438 C 57.824219 -52.648438 56.023438 -52.425781 54 -52.425781 C 52.199219 -52.425781 50.398438 -52.199219 48.375 -52.199219 L 45.449219 -52.199219 C 45 -51.976562 44.101562 -52.199219 43.648438 -51.75 C 43.425781 -51.523438 43.199219 -51.300781 43.199219 -51.074219 C 42.976562 -50.625 42.976562 -49.949219 42.976562 -49.273438 C 42.75 -44.550781 43.199219 -39.601562 43.199219 -34.875 C 43.199219 -30.148438 42.976562 -25.199219 42.976562 -20.476562 C 42.976562 -15.75 43.199219 -10.800781 43.199219 -6.074219 C 43.199219 -5.398438 42.75 -4.949219 42.523438 -4.273438 C 42.523438 -3.375 42.300781 -2.476562 41.398438 -2.023438 C 41.175781 -1.800781 40.726562 -1.574219 40.050781 -1.351562 C 39.601562 -1.351562 38.925781 -1.125 38.25 -1.125 C 30.824219 -1.125 23.625 -1.351562 16.425781 -1.351562 C 15.75 -1.351562 14.851562 -0.898438 14.398438 -1.125 C 13.050781 -1.351562 12.375 -2.476562 11.925781 -3.824219 L 11.25 -5.851562 C 11.25 -6.300781 11.699219 -6.976562 11.699219 -7.425781 L 11.699219 -25.425781 C 11.699219 -31.5 11.699219 -37.351562 11.699219 -43.425781 L 11.699219 -61.199219 C 11.699219 -67.273438 11.476562 -73.125 11.476562 -79.199219 Z M 42.976562 -104.625 C 42.976562 -99.449219 43.199219 -94.5 43.199219 -89.324219 C 43.199219 -88.648438 42.976562 -87.976562 42.976562 -87.074219 L 42.976562 -86.625 C 42.976562 -86.175781 43.425781 -85.949219 43.425781 -85.726562 C 43.648438 -85.273438 43.875 -85.050781 44.324219 -84.601562 C 44.773438 -84.375 45.226562 -83.925781 45.898438 -83.925781 L 51.300781 -83.925781 C 53.101562 -84.148438 54.898438 -83.925781 56.699219 -84.148438 C 57.601562 -84.148438 58.726562 -83.925781 59.625 -84.148438 C 61.875 -84.601562 63.675781 -85.949219 65.699219 -87.074219 C 66.824219 -87.75 68.175781 -87.976562 69.074219 -88.875 C 69.75 -89.550781 70.425781 -90.226562 71.101562 -91.125 C 72 -92.023438 72.675781 -93.601562 73.351562 -94.726562 C 74.023438 -95.851562 74.25 -96.976562 74.699219 -98.101562 C 75.148438 -99.226562 75.601562 -100.351562 75.601562 -101.699219 C 75.824219 -102.601562 76.273438 -103.273438 76.273438 -104.175781 C 76.5 -105.300781 76.050781 -106.199219 76.050781 -107.324219 C 75.824219 -108.898438 75.375 -110.25 74.925781 -111.824219 C 74.476562 -113.175781 73.800781 -114.75 72.898438 -116.101562 L 70.648438 -118.800781 C 69.976562 -119.699219 68.625 -120.148438 67.726562 -120.824219 C 66.601562 -121.5 65.699219 -122.175781 64.574219 -122.851562 L 61.425781 -124.199219 C 60.523438 -124.425781 59.851562 -124.648438 58.949219 -124.648438 C 58.5 -124.875 57.824219 -125.324219 57.375 -125.324219 C 56.699219 -125.324219 55.800781 -125.101562 55.125 -125.101562 L 46.351562 -125.101562 C 45.898438 -125.101562 45.449219 -124.875 45 -124.875 C 44.101562 -124.875 43.648438 -123.976562 43.425781 -123.300781 C 43.425781 -122.175781 42.976562 -121.273438 42.976562 -120.148438 Z M 42.976562 -104.625 "/></g></g></g><g fill="#ffffff" fill-opacity="1"><g transform="translate(1348.164812, 261.648425)"><g><path d="M 49.273438 -158.625 C 47.699219 -158.625 46.125 -158.175781 44.773438 -158.175781 C 44.550781 -158.175781 44.550781 -158.175781 44.324219 -158.175781 L 43.425781 -158.175781 C 43.199219 -158.175781 42.976562 -158.175781 42.75 -158.175781 L 42.300781 -158.175781 C 41.398438 -158.175781 40.273438 -158.175781 39.148438 -157.949219 C 37.351562 -157.5 35.550781 -156.824219 33.75 -156.148438 C 32.175781 -155.699219 30.375 -155.023438 28.800781 -154.125 C 27.226562 -153.226562 25.425781 -152.773438 24.074219 -151.648438 C 22.949219 -150.75 21.601562 -149.625 20.476562 -148.5 L 20.699219 -148.050781 C 20.023438 -147.601562 19.125 -147.375 18.898438 -146.925781 C 18.898438 -146.925781 19.125 -146.699219 19.125 -146.476562 L 18.449219 -146.023438 C 17.773438 -145.351562 17.324219 -144.898438 16.648438 -144.226562 L 14.175781 -141.074219 C 13.273438 -139.726562 12.375 -138.375 11.699219 -136.800781 C 11.25 -136.351562 11.25 -135.675781 10.800781 -135 C 10.125 -133.875 9.449219 -132.523438 9 -131.175781 C 8.324219 -129.824219 8.324219 -128.25 7.875 -126.898438 L 7.199219 -124.648438 C 6.976562 -123.523438 6.300781 -122.625 6.074219 -121.5 C 5.851562 -120.375 6.074219 -119.25 6.074219 -118.125 C 5.851562 -117.449219 5.851562 -116.550781 5.625 -115.648438 C 5.625 -115.648438 5.851562 -115.425781 5.625 -115.425781 C 5.625 -114.523438 5.625 -113.625 5.851562 -112.949219 C 5.851562 -111.824219 5.625 -110.925781 5.625 -110.023438 C 5.625 -109.574219 6.074219 -108.898438 6.074219 -108.449219 L 6.75 -104.851562 C 6.976562 -103.949219 6.75 -102.824219 6.976562 -101.925781 C 7.425781 -100.574219 8.324219 -99.449219 8.773438 -98.324219 C 9 -97.425781 9 -96.523438 9.449219 -95.851562 C 9.898438 -94.5 10.574219 -93.375 11.25 -92.023438 C 11.925781 -91.125 12.375 -89.773438 13.273438 -88.425781 C 13.949219 -87.300781 15.074219 -86.398438 15.976562 -85.273438 C 16.875 -83.925781 17.550781 -82.351562 18.449219 -81 C 19.125 -79.875 20.023438 -78.976562 20.925781 -77.851562 C 21.824219 -76.726562 22.5 -75.375 23.398438 -74.25 C 24.074219 -73.351562 24.523438 -72.226562 25.199219 -71.324219 L 28.574219 -67.273438 C 29.699219 -65.476562 30.601562 -63.675781 31.949219 -61.875 C 32.851562 -60.75 33.75 -59.851562 34.425781 -58.5 C 35.550781 -57.148438 36.898438 -55.574219 37.800781 -54 C 38.699219 -52.648438 39.148438 -51.300781 39.601562 -49.726562 C 40.050781 -48.375 40.273438 -47.023438 40.273438 -45.675781 C 40.273438 -44.773438 40.5 -44.101562 40.5 -43.199219 L 40.5 -42.75 C 40.5 -42.074219 40.050781 -41.625 39.824219 -41.175781 C 39.601562 -40.5 39.148438 -39.824219 38.925781 -38.925781 C 38.476562 -38.25 38.023438 -37.351562 37.351562 -36.449219 C 36.449219 -35.324219 35.550781 -34.425781 34.425781 -33.523438 C 33.523438 -33.074219 32.625 -32.175781 31.5 -31.726562 C 30.148438 -31.050781 28.574219 -30.375 27 -29.925781 C 25.648438 -29.476562 24.300781 -29.476562 22.949219 -29.476562 C 22.050781 -29.25 21.375 -29.25 20.476562 -29.25 C 20.25 -29.25 19.574219 -28.800781 19.351562 -28.800781 C 19.125 -28.800781 18.898438 -28.800781 18.898438 -28.800781 L 18.675781 -28.800781 C 18 -28.800781 17.550781 -29.25 16.875 -29.25 C 16.425781 -29.25 15.75 -29.476562 15.074219 -29.476562 C 14.851562 -29.476562 14.851562 -29.476562 14.625 -29.476562 L 13.726562 -29.476562 C 13.5 -29.476562 13.273438 -29.476562 13.050781 -29.476562 L 12.601562 -29.476562 C 11.925781 -29.476562 10.351562 -29.699219 9.898438 -29.476562 C 9.449219 -29.023438 9.449219 -28.574219 9.449219 -27.898438 C 9.449219 -27.449219 9 -26.773438 9 -26.324219 L 9 -5.175781 C 9 -4.5 9.449219 -3.824219 9.675781 -3.148438 C 9.675781 -2.25 10.125 -1.800781 10.800781 -1.351562 C 11.25 -1.125 11.925781 -0.675781 12.601562 -0.449219 C 13.726562 0 14.851562 0.226562 15.976562 0.449219 C 17.101562 0.675781 18.226562 0.675781 18.898438 0.898438 C 20.023438 1.125 21.148438 1.574219 22.050781 1.800781 L 22.5 1.800781 C 22.726562 1.800781 23.175781 1.574219 23.625 1.574219 L 28.800781 1.800781 C 28.800781 1.800781 28.800781 1.800781 29.023438 1.800781 L 29.023438 1.351562 C 29.023438 1.351562 29.25 1.351562 29.25 1.351562 L 30.375 1.351562 C 30.824219 1.574219 31.050781 1.574219 31.5 1.574219 L 31.726562 1.574219 C 33.300781 1.351562 34.648438 1.125 36.226562 0.675781 C 38.25 0.226562 40.050781 -0.898438 42.074219 -1.800781 C 43.875 -2.476562 45.675781 -2.699219 47.023438 -3.601562 C 48.148438 -4.273438 49.273438 -4.949219 50.175781 -5.625 L 51.976562 -6.976562 C 52.875 -7.648438 54 -8.324219 54.898438 -9.226562 C 55.574219 -9.675781 56.25 -10.351562 56.925781 -11.023438 C 58.050781 -11.925781 59.175781 -12.824219 60.300781 -14.175781 C 60.75 -14.625 61.199219 -15.300781 61.648438 -15.976562 C 62.550781 -16.875 63.226562 -18 63.898438 -19.125 C 64.800781 -20.25 65.023438 -21.601562 65.699219 -22.949219 C 66.601562 -24.75 67.949219 -26.324219 68.625 -28.125 C 69.300781 -30.148438 69.976562 -32.175781 70.425781 -34.199219 L 71.101562 -37.574219 C 71.324219 -38.699219 71.324219 -39.824219 71.324219 -40.949219 C 71.550781 -41.851562 71.550781 -42.75 71.773438 -43.648438 L 71.550781 -43.875 C 71.773438 -44.773438 71.773438 -45.675781 71.773438 -46.574219 L 71.773438 -49.273438 C 71.773438 -49.949219 71.550781 -50.398438 71.550781 -51.074219 C 71.324219 -51.75 71.550781 -52.425781 71.324219 -53.101562 C 71.101562 -54.449219 70.875 -56.023438 70.425781 -57.375 L 69.074219 -61.875 C 68.851562 -62.550781 68.398438 -63.226562 67.949219 -63.898438 C 67.5 -65.023438 66.824219 -66.375 66.148438 -67.5 C 65.925781 -68.175781 65.476562 -68.851562 65.023438 -69.523438 C 64.351562 -70.425781 64.125 -71.324219 63.449219 -72.226562 C 62.773438 -73.125 61.648438 -73.800781 61.199219 -74.925781 C 60.300781 -75.824219 59.851562 -76.949219 59.175781 -78.074219 L 57.375 -80.773438 C 56.476562 -81.675781 56.023438 -82.800781 55.351562 -83.925781 C 54.449219 -85.050781 53.550781 -85.949219 52.648438 -87.300781 C 51.976562 -88.199219 51.074219 -89.101562 50.398438 -90.226562 C 49.5 -91.351562 48.824219 -92.25 47.925781 -93.375 L 45.675781 -96.074219 C 45.226562 -96.976562 44.550781 -97.875 43.875 -98.773438 C 43.199219 -99.898438 42.523438 -101.023438 41.625 -101.925781 C 40.949219 -103.050781 40.5 -104.175781 39.824219 -105.074219 C 39.375 -105.75 39.148438 -106.425781 38.699219 -107.324219 L 37.351562 -110.476562 C 37.125 -111.601562 36.675781 -112.726562 36.675781 -114.074219 L 36.898438 -114.976562 C 36.898438 -116.101562 37.574219 -117.226562 38.023438 -118.351562 C 38.25 -119.023438 38.023438 -119.699219 38.25 -120.375 C 38.476562 -121.273438 39.148438 -121.949219 39.601562 -122.625 L 41.175781 -124.648438 C 41.851562 -125.324219 42.75 -126 43.648438 -126.449219 C 44.550781 -127.351562 45.449219 -127.800781 46.351562 -128.476562 C 47.699219 -128.925781 49.050781 -129.375 50.625 -129.601562 C 51.523438 -129.601562 52.199219 -129.824219 52.875 -129.824219 L 53.550781 -129.824219 C 54 -129.601562 54.675781 -129.375 55.125 -129.375 L 55.351562 -129.375 C 56.25 -129.601562 56.699219 -130.050781 56.925781 -130.726562 C 57.148438 -131.175781 57.148438 -131.625 57.148438 -132.074219 C 57.148438 -135.898438 57.375 -139.726562 57.375 -143.550781 L 56.925781 -143.550781 C 56.925781 -146.925781 56.925781 -150.300781 56.925781 -153.675781 L 56.925781 -155.023438 C 56.925781 -155.699219 57.148438 -156.375 56.699219 -157.050781 C 56.476562 -157.273438 56.023438 -157.273438 55.800781 -157.5 C 55.125 -157.726562 54.675781 -157.949219 54.226562 -157.949219 C 54.226562 -158.175781 54 -158.175781 54 -158.175781 C 53.773438 -158.175781 53.773438 -157.949219 53.550781 -157.949219 C 53.324219 -157.949219 53.101562 -157.949219 52.875 -157.949219 L 52.648438 -157.949219 C 52.648438 -157.949219 48.601562 -158.851562 49.273438 -158.625 Z M 49.273438 -158.625 "/></g></g></g><g clip-path="url(#id2)"><path fill="#ffffff" d="M 347.285156 182.949219 C 347.285156 227.457031 311.21875 263.574219 266.660156 263.574219 C 222.101562 263.574219 186.035156 227.511719 186.035156 182.949219 C 186.035156 138.445312 222.101562 102.324219 266.660156 102.324219 L 266.984375 102.324219 C 249.621094 111.464844 237.796875 129.683594 237.796875 150.648438 C 237.796875 180.800781 262.253906 205.257812 292.40625 205.257812 C 317.777344 205.257812 339.0625 188.003906 345.1875 164.570312 C 346.53125 170.480469 347.285156 176.609375 347.285156 182.949219 Z M 347.285156 182.949219 " fill-opacity="1" fill-rule="nonzero"/></g><g mask="url(#id3)"><g transform="matrix(1, 0, 0, 1, 309, 214)"><g clip-path="url(#id5)"><g clip-path="url(#id4)"><path fill="#ffffff" d="M 15.386719 7.652344 C 15.386719 8.144531 15.339844 8.632812 15.242188 9.117188 C 15.148438 9.605469 15.003906 10.074219 14.816406 10.53125 C 14.625 10.988281 14.394531 11.421875 14.121094 11.832031 C 13.84375 12.242188 13.53125 12.621094 13.183594 12.972656 C 12.835938 13.320312 12.453125 13.632812 12.042969 13.90625 C 11.632812 14.183594 11.199219 14.414062 10.742188 14.601562 C 10.285156 14.792969 9.816406 14.933594 9.332031 15.03125 C 8.847656 15.128906 8.355469 15.175781 7.863281 15.175781 C 7.367188 15.175781 6.878906 15.128906 6.394531 15.03125 C 5.910156 14.933594 5.441406 14.792969 4.984375 14.601562 C 4.527344 14.414062 4.09375 14.183594 3.683594 13.90625 C 3.269531 13.632812 2.890625 13.320312 2.542969 12.972656 C 2.191406 12.621094 1.878906 12.242188 1.605469 11.832031 C 1.332031 11.421875 1.101562 10.988281 0.910156 10.53125 C 0.722656 10.074219 0.578125 9.605469 0.480469 9.117188 C 0.386719 8.632812 0.335938 8.144531 0.335938 7.652344 C 0.335938 7.15625 0.386719 6.667969 0.480469 6.183594 C 0.578125 5.699219 0.722656 5.226562 0.910156 4.769531 C 1.101562 4.316406 1.332031 3.882812 1.605469 3.46875 C 1.878906 3.058594 2.191406 2.679688 2.542969 2.328125 C 2.890625 1.980469 3.269531 1.667969 3.683594 1.394531 C 4.09375 1.121094 4.527344 0.886719 4.984375 0.699219 C 5.441406 0.511719 5.910156 0.367188 6.394531 0.269531 C 6.878906 0.175781 7.367188 0.125 7.863281 0.125 C 8.355469 0.125 8.847656 0.175781 9.332031 0.269531 C 9.816406 0.367188 10.285156 0.511719 10.742188 0.699219 C 11.199219 0.886719 11.632812 1.121094 12.042969 1.394531 C 12.453125 1.667969 12.835938 1.980469 13.183594 2.328125 C 13.53125 2.679688 13.84375 3.058594 14.121094 3.46875 C 14.394531 3.882812 14.625 4.316406 14.816406 4.769531 C 15.003906 5.226562 15.148438 5.699219 15.242188 6.183594 C 15.339844 6.667969 15.386719 7.15625 15.386719 7.652344 Z M 15.386719 7.652344 " fill-opacity="1" fill-rule="nonzero"/></g></g></g></g><g mask="url(#id6)"><g transform="matrix(1, 0, 0, 1, 320, 208)"><g clip-path="url(#id8)"><g clip-path="url(#id7)"><path fill="#ffffff" d="M 7.238281 3.222656 C 7.238281 3.609375 7.164062 3.980469 7.015625 4.335938 C 6.867188 4.691406 6.660156 5.003906 6.386719 5.277344 C 6.113281 5.546875 5.800781 5.757812 5.445312 5.90625 C 5.089844 6.050781 4.71875 6.125 4.335938 6.125 C 3.949219 6.125 3.578125 6.050781 3.222656 5.90625 C 2.867188 5.757812 2.554688 5.546875 2.28125 5.277344 C 2.007812 5.003906 1.800781 4.691406 1.652344 4.335938 C 1.503906 3.980469 1.429688 3.609375 1.429688 3.222656 C 1.429688 2.839844 1.503906 2.46875 1.652344 2.113281 C 1.800781 1.757812 2.007812 1.441406 2.28125 1.171875 C 2.554688 0.898438 2.867188 0.6875 3.222656 0.542969 C 3.578125 0.394531 3.949219 0.320312 4.335938 0.320312 C 4.71875 0.320312 5.089844 0.394531 5.445312 0.542969 C 5.800781 0.6875 6.113281 0.898438 6.386719 1.171875 C 6.660156 1.441406 6.867188 1.757812 7.015625 2.113281 C 7.164062 2.46875 7.238281 2.839844 7.238281 3.222656 Z M 7.238281 3.222656 " fill-opacity="1" fill-rule="nonzero"/></g></g></g></g><g mask="url(#id9)"><g transform="matrix(1, 0, 0, 1, 221, 126)"><g clip-path="url(#id11)"><g clip-path="url(#id10)"><path fill="#ffffff" d="M 6.691406 3.738281 C 6.691406 4.125 6.617188 4.492188 6.46875 4.847656 C 6.324219 5.203125 6.113281 5.519531 5.839844 5.789062 C 5.570312 6.0625 5.253906 6.273438 4.898438 6.421875 C 4.542969 6.566406 4.175781 6.640625 3.789062 6.640625 C 3.402344 6.640625 3.035156 6.566406 2.679688 6.421875 C 2.324219 6.273438 2.007812 6.0625 1.738281 5.789062 C 1.464844 5.519531 1.253906 5.203125 1.109375 4.847656 C 0.960938 4.492188 0.886719 4.125 0.886719 3.738281 C 0.886719 3.355469 0.960938 2.984375 1.109375 2.628906 C 1.253906 2.273438 1.464844 1.957031 1.738281 1.6875 C 2.007812 1.414062 2.324219 1.203125 2.679688 1.058594 C 3.035156 0.910156 3.402344 0.835938 3.789062 0.835938 C 4.175781 0.835938 4.542969 0.910156 4.898438 1.058594 C 5.253906 1.203125 5.570312 1.414062 5.839844 1.6875 C 6.113281 1.957031 6.324219 2.273438 6.46875 2.628906 C 6.617188 2.984375 6.691406 3.355469 6.691406 3.738281 Z M 6.691406 3.738281 " fill-opacity="1" fill-rule="nonzero"/></g></g></g></g><g clip-path="url(#id12)"><path fill="#ffffff" d="M 438.851562 102.324219 C 394.324219 102.324219 358.226562 138.421875 358.226562 182.949219 C 358.226562 227.480469 394.324219 263.574219 438.851562 263.574219 C 483.378906 263.574219 519.476562 227.480469 519.476562 182.949219 C 519.476562 138.421875 483.378906 102.324219 438.851562 102.324219 " fill-opacity="1" fill-rule="nonzero"/></g><g fill="#ffffff" fill-opacity="1"><g transform="translate(16.570854, 262.499983)"><g><path d="M 117.675781 -60.75 C 117.675781 -66.375 117.898438 -72.226562 117.898438 -77.851562 C 117.898438 -83.476562 117.675781 -89.101562 117.675781 -94.949219 L 117.675781 -111.824219 C 117.675781 -112.726562 117.898438 -113.625 117.898438 -114.300781 C 117.898438 -114.523438 117.898438 -114.75 117.675781 -114.976562 C 117.675781 -115.648438 117.226562 -116.101562 117.226562 -116.773438 C 117 -117.675781 117.226562 -118.574219 116.773438 -119.476562 C 116.550781 -120.375 116.101562 -121.050781 115.425781 -121.949219 C 114.523438 -123.300781 112.949219 -124.425781 111.148438 -124.875 C 110.476562 -125.324219 109.574219 -125.773438 108.898438 -125.773438 C 107.773438 -125.773438 106.875 -125.324219 105.976562 -125.101562 C 104.625 -124.648438 103.273438 -124.199219 102.375 -123.300781 C 101.25 -122.398438 100.574219 -121.273438 99.898438 -120.148438 L 99.226562 -118.125 C 99 -117.675781 98.324219 -117.226562 98.101562 -116.550781 C 97.875 -115.648438 98.101562 -114.523438 98.101562 -113.625 C 97.875 -111.824219 97.648438 -109.800781 97.648438 -108 C 97.648438 -102.601562 98.101562 -96.976562 98.101562 -91.351562 C 98.101562 -85.949219 97.875 -80.324219 97.875 -74.925781 C 97.875 -69.300781 97.875 -63.898438 97.875 -58.273438 L 97.875 -41.851562 C 97.875 -36.226562 98.101562 -30.824219 98.101562 -25.199219 C 98.101562 -19.800781 97.648438 -14.175781 97.648438 -8.773438 C 97.648438 -7.425781 97.875 -6.074219 97.425781 -4.949219 C 97.199219 -3.601562 96.75 -2.699219 95.851562 -1.800781 C 95.175781 -1.351562 94.726562 -0.898438 94.050781 -0.675781 C 93.148438 -0.449219 92.023438 -0.449219 90.898438 -0.449219 C 90.449219 -0.449219 90 -0.449219 89.324219 -0.675781 C 88.648438 -0.675781 87.976562 -0.449219 87.300781 -0.226562 L 86.851562 -0.226562 C 83.699219 -0.226562 80.550781 -0.226562 77.398438 -0.226562 L 74.925781 -0.226562 C 74.699219 -0.226562 74.476562 -0.449219 74.25 -0.226562 L 74.023438 -0.449219 C 73.351562 -0.449219 72.675781 -0.226562 72.226562 -0.449219 C 72 -0.449219 72 -0.226562 72 -0.226562 C 71.101562 -0.226562 70.199219 -0.449219 69.300781 -0.898438 C 68.175781 -1.351562 67.5 -2.476562 66.824219 -3.601562 C 66.601562 -4.273438 66.375 -4.949219 66.375 -5.625 C 66.148438 -6.300781 66.148438 -6.75 66.148438 -7.425781 C 65.925781 -9 66.148438 -10.800781 66.148438 -12.375 C 66.148438 -18 66.375 -23.398438 66.375 -29.023438 C 66.375 -34.425781 66.148438 -39.824219 66.148438 -45.449219 L 66.148438 -61.875 C 66.148438 -67.273438 66.375 -72.898438 66.375 -78.300781 C 66.375 -83.925781 66.148438 -89.324219 66.148438 -94.726562 C 66.148438 -100.351562 66.601562 -105.75 66.601562 -111.375 C 66.601562 -112.273438 65.925781 -113.175781 65.925781 -114.300781 C 65.699219 -114.976562 65.925781 -115.875 65.925781 -116.773438 L 65.925781 -117.675781 C 65.476562 -118.800781 64.800781 -119.699219 64.351562 -120.601562 C 63.898438 -121.273438 63.898438 -122.175781 63.226562 -122.851562 C 63 -123.074219 62.550781 -123.300781 62.101562 -123.75 C 61.199219 -124.425781 60.074219 -124.875 58.726562 -125.324219 C 58.273438 -125.324219 57.601562 -125.773438 56.925781 -125.550781 L 56.023438 -125.324219 C 54.898438 -125.324219 54.226562 -124.875 53.101562 -124.425781 C 52.199219 -123.976562 51.074219 -123.300781 50.398438 -122.625 C 49.949219 -122.175781 49.5 -121.949219 49.273438 -121.5 C 48.148438 -119.925781 47.023438 -118.351562 46.574219 -116.550781 C 46.574219 -115.648438 46.800781 -114.75 46.800781 -114.074219 L 46.800781 -113.625 C 46.574219 -112.273438 46.351562 -110.925781 46.351562 -109.574219 C 46.351562 -104.175781 46.574219 -99 46.574219 -93.601562 C 46.574219 -88.199219 46.351562 -82.800781 46.351562 -77.398438 L 46.351562 -61.425781 C 46.351562 -56.023438 46.574219 -50.625 46.574219 -45.226562 C 46.574219 -39.824219 46.574219 -34.648438 46.574219 -29.25 L 46.574219 -13.050781 C 46.574219 -12.148438 46.574219 -11.023438 46.574219 -9.898438 L 46.574219 -6.300781 C 46.574219 -5.175781 45.898438 -4.273438 45.226562 -3.375 C 44.773438 -2.476562 44.324219 -1.351562 43.425781 -0.898438 C 42.75 -0.675781 42.074219 -0.449219 41.398438 -0.449219 C 40.949219 -0.226562 40.5 -0.449219 39.824219 -0.449219 C 39.601562 -0.226562 39.148438 -0.449219 38.925781 -0.226562 L 38.699219 -0.226562 C 37.574219 -0.449219 36.675781 -0.226562 35.773438 0 L 35.324219 0 C 32.175781 0 29.023438 -0.675781 25.875 -0.675781 C 24.976562 -0.675781 24.300781 -0.449219 23.398438 -0.226562 C 23.175781 -0.226562 22.949219 -0.449219 22.726562 -0.449219 C 22.5 -0.449219 22.5 -0.675781 22.5 -0.675781 C 21.375 -0.675781 20.476562 -0.675781 19.574219 -0.898438 C 18.675781 -1.125 17.773438 -1.125 17.101562 -1.800781 C 16.425781 -2.25 16.199219 -2.699219 15.976562 -3.375 C 15.523438 -4.273438 14.851562 -5.175781 14.851562 -6.300781 C 14.851562 -7.425781 15.074219 -8.550781 15.074219 -9.675781 L 15.074219 -10.351562 C 14.851562 -12.375 14.625 -14.398438 14.625 -16.425781 C 14.625 -18.449219 15.074219 -20.476562 15.074219 -22.5 C 15.074219 -27.898438 14.625 -33.523438 14.625 -39.148438 C 14.625 -44.773438 14.625 -50.398438 14.625 -56.023438 L 14.625 -72.675781 C 14.625 -78.300781 14.851562 -83.925781 14.851562 -89.324219 L 14.851562 -106.199219 C 15.074219 -108.898438 14.398438 -111.824219 14.625 -114.523438 C 14.625 -115.425781 15.074219 -116.324219 15.074219 -117.226562 C 15.300781 -117.898438 14.851562 -118.351562 14.851562 -119.023438 C 15.074219 -119.699219 15.300781 -120.375 15.300781 -120.824219 C 15.523438 -122.625 16.199219 -124.199219 16.648438 -126 C 16.648438 -126.449219 16.875 -126.898438 16.875 -127.125 C 16.875 -127.574219 16.648438 -127.800781 16.648438 -128.25 C 17.101562 -128.925781 17.550781 -129.601562 18 -130.5 C 18.226562 -131.175781 18.226562 -131.851562 18.449219 -132.523438 C 18.675781 -132.75 18.898438 -133.199219 18.898438 -133.425781 C 20.023438 -135.449219 21.375 -137.25 22.726562 -139.273438 C 23.625 -140.398438 24.523438 -141.523438 25.425781 -142.425781 C 26.324219 -143.550781 27.226562 -144.675781 28.351562 -145.800781 C 29.25 -146.699219 29.925781 -147.601562 31.050781 -148.273438 C 31.726562 -148.949219 32.625 -149.398438 33.523438 -150.074219 C 34.648438 -150.75 35.324219 -151.648438 36.226562 -152.324219 C 37.574219 -153 38.925781 -153.449219 40.050781 -154.125 C 40.949219 -154.351562 41.625 -154.800781 42.523438 -155.023438 C 42.976562 -155.25 43.648438 -155.25 44.324219 -155.476562 C 45.226562 -155.699219 46.125 -155.699219 47.023438 -155.925781 C 48.148438 -156.148438 49.5 -156.824219 50.625 -157.050781 C 51.523438 -157.050781 52.199219 -156.824219 53.101562 -157.050781 L 54 -157.050781 C 55.574219 -157.273438 57.375 -157.5 58.949219 -157.5 C 61.199219 -157.273438 63.449219 -156.824219 62.324219 -157.050781 C 63.449219 -156.824219 64.800781 -156.824219 65.925781 -156.601562 C 66.824219 -156.375 67.5 -155.925781 68.175781 -155.699219 C 69.074219 -155.25 70.199219 -155.25 71.101562 -155.023438 C 72 -154.574219 73.125 -154.351562 74.023438 -153.898438 C 75.148438 -153.449219 76.273438 -153 77.398438 -152.324219 C 78.300781 -151.875 78.75 -150.75 79.875 -150.300781 C 80.550781 -150.074219 81.449219 -150.074219 82.125 -149.851562 C 82.800781 -149.851562 83.476562 -149.851562 83.925781 -150.074219 C 85.050781 -150.300781 85.949219 -151.199219 86.851562 -151.648438 C 88.425781 -152.550781 89.773438 -153.226562 91.351562 -153.898438 C 92.25 -154.125 93.148438 -154.800781 94.273438 -155.023438 C 94.949219 -155.25 95.625 -155.25 96.300781 -155.476562 C 97.425781 -155.699219 98.550781 -156.375 99.675781 -156.601562 C 100.800781 -157.050781 101.925781 -156.824219 103.050781 -157.050781 C 107.773438 -157.5 119.925781 -157.726562 112.5 -157.273438 C 114.074219 -157.050781 115.648438 -156.601562 117.226562 -156.375 L 119.699219 -155.925781 C 121.050781 -155.699219 122.398438 -155.023438 123.75 -154.351562 C 125.324219 -153.675781 127.125 -153 128.699219 -152.101562 L 130.726562 -150.976562 C 131.625 -150.300781 132.300781 -149.625 133.199219 -149.175781 L 134.550781 -147.824219 C 134.773438 -147.824219 134.550781 -147.601562 134.550781 -147.601562 C 135.675781 -146.699219 136.800781 -146.023438 137.699219 -145.125 C 139.050781 -143.550781 140.398438 -141.976562 141.523438 -140.398438 C 142.425781 -139.273438 142.875 -137.925781 143.324219 -136.574219 C 144 -135.449219 144.898438 -134.550781 145.351562 -133.425781 C 146.023438 -132.300781 146.25 -130.949219 146.699219 -129.601562 C 147.375 -128.023438 147.824219 -126.675781 148.050781 -125.324219 C 148.5 -123.976562 148.726562 -122.851562 148.949219 -121.726562 C 149.175781 -120.601562 148.726562 -119.699219 148.726562 -118.800781 C 148.726562 -118.125 149.398438 -117.449219 149.398438 -116.773438 C 149.398438 -116.550781 149.175781 -116.324219 149.175781 -116.101562 L 149.398438 -114.75 C 149.625 -114.75 149.175781 -110.925781 149.175781 -111.148438 C 149.175781 -109.800781 149.625 -108.675781 149.625 -107.324219 C 149.625 -106.199219 149.175781 -105.074219 149.175781 -103.726562 C 149.175781 -98.550781 149.625 -93.148438 149.625 -87.976562 L 149.625 -72 C 149.625 -66.824219 149.625 -61.425781 149.625 -56.25 L 149.625 -40.273438 C 149.625 -35.101562 149.175781 -29.699219 149.175781 -24.523438 C 149.175781 -19.351562 149.398438 -13.949219 149.398438 -8.773438 C 149.398438 -7.425781 149.398438 -6.074219 149.175781 -4.949219 C 148.726562 -3.601562 148.050781 -2.699219 147.148438 -1.800781 C 146.699219 -1.351562 146.023438 -1.125 145.351562 -0.898438 C 144.449219 -0.449219 143.324219 -0.675781 142.425781 -0.675781 C 142.199219 -0.675781 141.976562 -0.226562 141.976562 -0.226562 L 141.523438 -0.226562 C 140.625 -0.449219 139.726562 -0.226562 138.824219 0 C 138.601562 0 138.375 -0.449219 138.375 -0.449219 C 135.226562 -0.449219 132.074219 -0.226562 128.699219 -0.449219 L 126.449219 -0.449219 C 126.226562 -0.449219 126 -0.226562 125.773438 -0.226562 C 125.550781 -0.226562 125.550781 0 125.550781 0 C 124.875 -0.226562 124.199219 -0.449219 123.523438 -0.449219 C 123.523438 -0.449219 123.523438 -0.675781 123.300781 -0.675781 C 122.625 -0.675781 121.726562 -0.675781 120.824219 -0.898438 C 119.925781 -1.351562 119.25 -2.25 118.800781 -3.148438 C 118.351562 -4.050781 117.898438 -4.726562 117.898438 -5.625 C 117.898438 -6.300781 118.125 -6.976562 117.898438 -7.425781 C 117.675781 -9.226562 117.898438 -11.023438 117.898438 -12.601562 C 117.898438 -18 117.898438 -23.398438 117.898438 -28.800781 L 117.898438 -44.773438 C 117.898438 -50.175781 117.898438 -55.351562 117.898438 -60.75 Z M 117.675781 -60.75 "/></g></g></g></svg>